<?xml version="1.0" encoding="UTF-8" standalone="no"?>
<svg
   width="30"
   height="22.5"
   viewBox="0 0 40 31.999999"
   creator="Katerina Limpitsouni"
   version="1.1"
   id="svg1"
   xmlns="http://www.w3.org/2000/svg"
   xmlns:svg="http://www.w3.org/2000/svg">
  <defs
     id="defs1" />
  <path
     d="m 20.670337,23.508516 16.986406,0.961822 c 1.305836,0.07394 2.454996,-1.40546 2.334567,-2.624861 -0.295674,-2.994018 -0.591356,-5.988042 -0.88703,-8.98206 -0.132537,-1.342092 -1.239247,-2.405791 -2.624861,-2.334567 -5.589429,0.287316 -11.17886,0.574633 -16.768283,0.861942 l 0.914615,4.841908 c 0.440092,-0.115055 0.908059,-0.194998 1.335412,-0.34912 1.601073,-0.577426 2.099247,-2.683766 2.73702,-4.098557 1.212346,-2.6893908 2.424693,-5.378784 3.63704,-8.0681771 C 29.330492,1.5090133 26.867051,-0.81576803 24.755701,0.53319857 17.653479,5.0709238 9.8818011,8.3420342 1.685788,10.302783 -0.17939196,10.74899 -0.53219196,13.354232 0.80446664,14.521044 7.1958223,20.100239 13.587172,25.679443 19.978521,31.258645 c 1.411202,1.231876 3.718328,0.496463 4.086631,-1.367438 0.340417,-1.722782 -0.100943,-3.433648 -0.352206,-5.154114 -0.159783,-1.094078 -0.308246,-2.190537 -0.479454,-3.282863 -0.195423,-1.246809 -0.509108,-1.955459 -1.609888,-2.654035 -1.13356,-0.719383 -2.778748,0.02007 -3.327015,1.130197 -0.646729,1.309504 -0.0067,2.605513 1.130198,3.327016 l 0.16008,0.101594 -1.381312,-2.083459 0.684931,4.689804 c 0.16678,1.141976 0.483092,2.037127 0.302983,2.948619 L 23.2801,27.546527 C 16.888751,21.967324 10.497395,16.388128 4.1060464,10.808925 L 3.2247243,15.027172 C 11.810712,12.973119 20.018909,9.4563262 27.457531,4.7036755 L 23.878009,1.5200282 C 22.239704,5.1543396 20.601393,8.7886592 18.963087,12.42297 l 1.459139,-1.263792 -1.335412,0.349119 c -2.77499,0.725478 -1.851861,4.984114 0.914616,4.841908 5.58943,-0.287316 11.178859,-0.574631 16.768283,-0.86194 l -2.624862,-2.334567 c 0.295675,2.994017 0.591356,5.988041 0.88703,8.982058 l 2.334566,-2.62486 C 31.70431,19.190291 26.042179,18.869678 20.380041,18.549074 c -1.340486,-0.0759 -2.40662,1.394006 -2.334567,2.624861 0.08587,1.467055 1.280958,2.258471 2.624862,2.334566 z"
     fill="white"
     origin="undraw"
     id="path1"
     style="stroke-width:0.993584" />
</svg>
